<svg xmlns="http://www.w3.org/2000/svg" xmlns:xlink="http://www.w3.org/1999/xlink" viewBox="0 0 285.51 285.51"><defs><style>.cls-1{fill:none;}.cls-2{clip-path:url(#clip-path);}.cls-3{fill:url(#New_Gradient_Swatch_1);}</style><clipPath id="clip-path" transform="translate(5.45)"><path class="cls-1" d="M48.39,48.39A48.34,48.34,0,0,1,7.45,25.78H46.23A24.85,24.85,0,0,1,71.1,50.65V219.11a48.32,48.32,0,0,1-21.91-40.49V48.37Zm42.3-24.9A48.37,48.37,0,0,0,49.19,0H0A48.18,48.18,0,0,0,4.89,21.21H46.23A29.42,29.42,0,0,1,75.67,50.65V221.76A48.14,48.14,0,0,0,97.58,227V110h0V48.39A48.21,48.21,0,0,0,90.69,23.49ZM137.74,9.92a48.27,48.27,0,0,0-21.91-5.24v227a48.35,48.35,0,0,0,21.91,40.5Zm4.57,2.65V274.8a48.14,48.14,0,0,0,21.91,5.25V207.47h0V53.06A48.35,48.35,0,0,0,142.31,12.57ZM274.8,21.91A48.14,48.14,0,0,0,280.05,0H230.86a48.32,48.32,0,0,0-40.49,21.91Zm-87.08,4.57a48.14,48.14,0,0,0-5.25,21.91h49.19a48.35,48.35,0,0,0,40.5-21.91Z"/></clipPath><linearGradient id="New_Gradient_Swatch_1" x1="142.75" x2="142.75" y2="285.51" gradientUnits="userSpaceOnUse"><stop offset="0" stop-color="#eed266"/><stop offset="1" stop-color="#bd9225"/></linearGradient></defs><g id="Layer_2" data-name="Layer 2"><g id="Layer_1-2" data-name="Layer 1"><g class="cls-2"><rect class="cls-3" width="285.51" height="285.51"/></g></g></g></svg>